<svg width="799" height="799" viewBox="0 0 799 799" fill="none" xmlns="http://www.w3.org/2000/svg">
<path fill-rule="evenodd" clip-rule="evenodd" d="M163.342 490.025C253.553 580.236 399.814 580.236 490.025 490.025C580.236 399.814 580.236 253.553 490.025 163.342C399.814 73.1306 253.553 73.1306 163.342 163.342C73.1305 253.553 73.1305 399.814 163.342 490.025ZM218.142 435.931C278.088 495.877 375.279 495.877 435.224 435.931C495.17 375.986 495.17 278.795 435.224 218.85C375.279 158.904 278.088 158.904 218.142 218.85C158.197 278.795 158.197 375.986 218.142 435.931Z" fill="black"/>
<path d="M430.274 449.366C453.511 426.13 491.184 426.13 514.42 449.366L625.436 560.382C648.672 583.618 648.672 621.292 625.436 644.528V644.528C602.2 667.764 564.526 667.764 541.29 644.528L430.274 533.512C407.038 510.276 407.038 472.603 430.274 449.366V449.366Z" fill="black"/>
</svg>
